HIERARCHY
ROOT Hips
{
	OFFSET 0.000000 0.000000 0.000000 
	CHANNELS 6 Xposition Yposition Zposition Zrotation Yrotation Xrotation
	JOINT LeftUpLeg
	{
		OFFSET 1.363060 -1.794630 0.839290 
		CHANNELS 3 Zrotation Yrotation Xrotation
		JOINT LeftLeg
		{
			OFFSET 2.448110 -6.726130 0.000000 
			CHANNELS 3 Zrotation Yrotation Xrotation
			JOINT LeftFoot
			{
				OFFSET 2.562200 -7.039590 0.000000 
				CHANNELS 3 Zrotation Yrotation Xrotation
				JOINT LeftToeBase
				{
					OFFSET 0.157640 -0.433110 2.322550 
					CHANNELS 3 Zrotation Yrotation Xrotation
					End Site
					{
						OFFSET 0.000000 0.000000 0.000000 
					}
				}
			}
		}
	}
	JOINT RightUpLeg
	{
		OFFSET -1.305520 -1.794630 0.839290 
		CHANNELS 3 Zrotation Yrotation Xrotation
		JOINT RightLeg
		{
			OFFSET -2.542530 -6.985550 0.000000 
			CHANNELS 3 Zrotation Yrotation Xrotation
			JOINT RightFoot
			{
				OFFSET -2.568260 -7.056230 0.000000 
				CHANNELS 3 Zrotation Yrotation Xrotation
				JOINT RightToeBase
				{
					OFFSET -0.164730 -0.452590 2.363150 
					CHANNELS 3 Zrotation Yrotation Xrotation
					End Site
					{
						OFFSET 0.000000 0.000000 0.000000 
					}
				}
			}
		}
	}
	JOINT Spine
	{
		OFFSET 0.028270 2.035590 -0.193380 
		CHANNELS 3 Zrotation Yrotation Xrotation
		JOINT Spine1
		{
			OFFSET 0.056720 2.048850 -0.042750 
			CHANNELS 3 Zrotation Yrotation Xrotation
			JOINT Neck1
			{
				OFFSET -0.054170 1.746240 0.172020 
				CHANNELS 3 Zrotation Yrotation Xrotation
				JOINT Head
				{
					OFFSET 0.104070 1.761360 -0.123970 
					CHANNELS 3 Zrotation Yrotation Xrotation
					End Site
					{
						OFFSET 0.000000 0.000000 0.000000 
					}
				}
			}
			JOINT LeftArm
			{
				OFFSET 3.362410 1.200890 -0.311210 
				CHANNELS 3 Zrotation Yrotation Xrotation
				JOINT LeftForeArm
				{
					OFFSET 4.983000 -0.000000 -0.000000 
					CHANNELS 3 Zrotation Yrotation Xrotation
					JOINT LeftHand
					{
						OFFSET 3.483560 -0.000000 -0.000000 
						CHANNELS 3 Zrotation Yrotation Xrotation
						JOINT LeftHandIndex1
						{
							OFFSET 0.715260 -0.000000 -0.000000 
							CHANNELS 3 Zrotation Yrotation Xrotation
							End Site
							{
								OFFSET 0.000000 0.000000 0.000000 
							}
						}
					}
				}
			}
			JOINT RightArm
			{
				OFFSET -3.136600 1.374050 -0.404650 
				CHANNELS 3 Zrotation Yrotation Xrotation
				JOINT RightForeArm
				{
					OFFSET -5.241900 -0.000000 -0.000000 
					CHANNELS 3 Zrotation Yrotation Xrotation
					JOINT RightHand
					{
						OFFSET -3.444170 -0.000000 -0.000000 
						CHANNELS 3 Zrotation Yrotation Xrotation
						JOINT RightHandIndex1
						{
							OFFSET -0.622530 -0.000000 -0.000000 
							CHANNELS 3 Zrotation Yrotation Xrotation
							End Site
							{
								OFFSET 0.000000 0.000000 0.000000 
							}
						}
					}
				}
			}
		}
	}
}
MOTION
Frames: 6
Frame Time: 0.041667
0.852925 18.358058 9.284920 -12.094465 4.077943 10.188887 -14.544534 -41.875970 17.122245 -3.600175 -2.164161 -2.652490 -14.256807 41.946720 -20.219339 0.005300 0.469700 1.290600 26.807048 25.994239 3.132462 3.565873 -0.889649 4.006410 7.728263 -24.240152 -4.406459 -0.017800 0.861700 -2.368300 28.370629 5.003522 -9.090678 -15.056367 -1.617692 -10.394120 24.213458 -23.198459 24.013166 4.417600 -9.576200 8.634000 -84.061584 4.075893 -55.847525 6.533248 -8.414440 -1.005641 2.000454 1.666752 78.089683 -7.125000 0.000000 0.000000 76.972164 -7.360165 -26.908114 -9.420117 12.627822 -1.481104 1.246924 1.452267 54.369473 7.125000 0.000000 0.000000 
0.852714 18.358479 9.287449 -12.116667 4.080649 10.129130 -14.554920 -41.863584 17.148743 -3.602971 -2.158214 -2.617325 -14.239967 41.917554 -20.318018 0.006900 0.534800 1.469500 26.860867 26.062652 3.226880 3.567548 -0.882014 3.992734 7.761096 -24.330343 -4.445772 -0.020500 0.923800 -2.539100 28.525693 4.966972 -8.843614 -15.091966 -1.626507 -10.444609 24.304467 -23.149409 23.858467 4.449500 -9.557100 8.599800 -84.115590 4.046412 -55.480616 6.555682 -8.433641 -1.008248 1.998900 1.663758 77.688974 -7.125000 0.000000 0.000000 76.976912 -7.264070 -27.077633 -9.379079 12.569337 -1.466845 1.250441 1.428541 54.671161 7.125000 0.000000 0.000000 
0.853135 18.358269 9.289135 -12.125161 4.081841 10.119472 -14.580135 -41.899650 17.187065 -3.606876 -2.157633 -2.602719 -14.222868 41.900781 -20.486310 0.008000 0.577400 1.586500 26.872934 26.125874 3.274301 3.569580 -0.877505 3.984495 7.767883 -24.344231 -4.520811 -0.016600 0.832800 -2.288800 28.612676 4.959189 -8.784874 -15.104785 -1.632992 -10.463251 24.252464 -23.072823 23.769373 4.441600 -9.528700 8.561100 -84.141632 4.029375 -55.294863 6.562224 -8.436121 -1.010288 1.992230 1.677345 77.398743 -7.125000 0.000000 0.000000 76.975402 -7.175628 -27.244650 -9.306250 12.466085 -1.445736 1.259026 1.400799 54.863676 7.125000 0.000000 0.000000 
0.853030 18.357952 9.291558 -12.116669 4.094685 10.195545 -14.608034 -41.986074 17.204698 -3.609352 -2.156718 -2.604571 -14.219559 41.915556 -20.640236 0.009700 0.636400 1.748700 26.838917 26.155161 3.235849 3.571133 -0.878222 3.973666 7.764151 -24.335372 -4.553424 -0.013600 0.753200 -2.070000 28.644137 5.019546 -9.064620 -15.090286 -1.632900 -10.397938 24.190738 -22.990614 23.700593 4.438500 -9.499800 8.523200 -84.174717 4.049540 -55.325797 6.563902 -8.433506 -1.011177 1.984454 1.690462 77.290260 -7.125000 0.000000 0.000000 77.080667 -7.267432 -26.986574 -9.368367 12.547569 -1.462636 1.255258 1.414105 54.645357 7.125000 0.000000 0.000000 
0.847446 18.362272 9.297564 -11.768499 4.011028 10.466136 -14.962034 -42.242326 17.216365 -3.617426 -2.152544 -2.613946 -14.245258 42.044069 -21.018083 0.015000 0.792000 2.176800 26.370598 26.318676 3.051781 3.575146 -0.884946 3.937957 7.819304 -24.461512 -4.500937 -0.001200 0.226700 -0.622900 28.329013 5.132428 -9.739373 -14.794314 -1.561381 -10.119357 24.237968 -22.909509 23.558665 4.459000 -9.471300 8.456500 -84.217996 4.279257 -53.676951 6.616725 -8.432791 -1.007326 1.908576 1.732746 75.536867 -7.125000 0.000000 0.000000 77.040022 -7.347421 -26.521315 -9.349738 12.521050 -1.471197 1.259783 1.454783 53.815967 7.125000 0.000000 0.000000 
0.840386 18.371228 9.323589 -11.515741 4.131119 10.939534 -15.041309 -42.589442 16.938216 -3.612691 -2.145355 -2.664012 -14.288443 42.176780 -21.196376 0.014700 0.783700 2.153900 25.937780 26.300071 2.721322 3.587837 -0.837124 3.772786 7.867642 -24.576262 -4.448331 -0.018000 -0.865600 2.379100 28.206839 5.150198 -10.314134 -14.548434 -1.532508 -9.469187 24.302899 -22.866076 23.346798 4.469900 -9.454600 8.400100 -84.278316 4.618262 -50.373597 6.708164 -8.416791 -1.000141 1.763901 1.800413 72.164952 -7.125000 0.000000 0.000000 76.799806 -7.165376 -26.370165 -9.103823 12.171612 -1.432634 1.291106 1.471580 52.919225 7.125000 0.000000 0.000000 
